<svg xmlns="http://www.w3.org/2000/svg" viewBox="0 0 447 428"><style>.favicon-stroke{stroke-width:8px;stroke:#8929ff}@media (prefers-color-scheme:dark){.favicon-stroke{stroke:#343a40}}</style><g id="skull"><path stroke-linejoin="round" d="M19.62 188.39A166.62 166.62 0 0 1 186.24 21.77c115.25 0 166.61 74.59 166.61 166.62 0 1.83-.08 3.64-.13 5.46h.13s.68 175.09.68 178.65c0 30.11-16.26 41.67-36.32 41.67-12.7 0-35.22-3.93-36.22-32.69h-.2c-1 28.76-16.81 32.69-36.22 32.69-18 0-32.87-6.78-35.77-32.53-2.9 25.75-17.8 32.53-35.8 32.53-20.06 0-36.32-11.56-36.32-41.67 0-2.48.36-24.88.36-24.88A166.68 166.68 0 0 1 19.62 188.39Z" class="favicon-stroke" style="fill:#fff"/><path d="M180.77 205.76c0 23.64 12.84 42.81 28.68 42.81s28.68-19.17 28.68-42.81-12.84-42.82-28.68-42.82-28.68 19.17-28.68 42.82m94.23 0c0 23.64 12.84 42.81 28.68 42.81s28.68-19.17 28.68-42.81-12.84-42.82-28.68-42.82S275 182.11 275 205.76m-10.49 71.09s-29.26 43.53-20.12 49.23c7.07 4.41 20.49-16.71 20.49-16.71s12.82 22.58 16.76 20c16.24-10.71-17.13-52.5-17.13-52.5" style="fill:#8929ff"/><path id="jawline" fill="none" stroke-linecap="round" d="M114.92 284.33c22.54-1 22 7 22 62.48" class="favicon-stroke"/></g></svg>